<?xml version="1.0" standalone="no"?>
<!DOCTYPE svg PUBLIC "-//W3C//DTD SVG 20010904//EN"
 "http://www.w3.org/TR/2001/REC-SVG-20010904/DTD/svg10.dtd">
<svg version="1.0" xmlns="http://www.w3.org/2000/svg"
 width="1725.000000pt" height="468.000000pt" viewBox="0 0 1725.000000 468.000000"
 preserveAspectRatio="xMidYMid meet">

<g transform="translate(0.000000,468.000000) scale(0.100000,-0.100000)"
fill="#000000" stroke="none">
<path d="M3013 4656 c-204 -39 -371 -125 -522 -270 -127 -123 -213 -265 -267
-441 -26 -84 -28 -103 -28 -270 -1 -214 15 -289 94 -450 97 -197 258 -358 455
-455 140 -70 229 -92 399 -97 165 -6 254 6 385 53 246 88 440 261 556 499 68
137 95 244 102 400 13 286 -84 538 -282 740 -139 141 -286 227 -473 276 -101
27 -318 34 -419 15z m264 -246 c167 -22 321 -97 438 -214 285 -286 295 -739
23 -1031 -160 -171 -363 -255 -587 -242 -114 6 -190 26 -288 73 -190 91 -342
275 -399 484 -28 100 -26 292 5 390 77 248 255 433 493 510 109 35 206 44 315
30z"/>
<path d="M40 3665 l0 -965 125 0 125 0 2 757 3 756 600 -756 600 -756 113 -1
112 0 0 965 0 965 -125 0 -125 0 -2 -739 -3 -739 -585 738 -585 739 -127 0
-128 1 0 -965z"/>
<path d="M4415 4613 c3 -10 191 -445 417 -966 l411 -948 116 3 115 3 416 960
416 960 -135 3 c-74 1 -138 -1 -142 -5 -4 -4 -154 -348 -334 -763 -179 -415
-330 -759 -334 -763 -4 -4 -158 339 -342 763 l-334 770 -138 0 c-128 0 -139
-1 -132 -17z"/>
<path d="M7087 4528 c-295 -675 -788 -1821 -785 -1824 3 -2 431 -3 951 -2
l946 3 -417 962 -417 963 -116 0 -117 0 -45 -102z m443 -926 l277 -637 -555
-3 c-305 -1 -557 -1 -559 1 -5 6 551 1286 556 1281 3 -2 129 -291 281 -642z"/>
<path d="M8702 3668 l3 -963 203 -3 202 -2 0 452 0 453 197 -453 197 -452 184
2 185 3 192 443 c106 243 195 445 199 449 3 3 6 -197 6 -445 l0 -452 200 0
200 0 0 965 0 965 -198 0 -198 0 -279 -642 c-153 -354 -285 -657 -294 -675
l-16 -32 -291 672 -291 672 -202 3 -201 2 2 -962z"/>
<path d="M11942 4613 c-24 -46 -822 -1893 -822 -1902 0 -8 67 -11 213 -11
l212 0 294 678 c161 372 296 680 300 684 3 3 139 -300 301 -675 l296 -682 218
-3 c122 -1 216 1 214 6 -1 5 -190 440 -418 966 l-415 956 -192 0 c-173 0 -193
-2 -201 -17z"/>
<path d="M13330 4430 l0 -200 320 0 320 0 2 -762 3 -763 203 -3 202 -2 0 765
0 765 325 0 325 0 0 200 0 200 -850 0 -850 0 0 -200z"/>
<path d="M15602 3668 l3 -963 200 0 200 0 3 383 2 382 415 0 415 0 0 -385 0
-385 200 0 200 0 0 965 0 965 -200 0 -200 0 0 -380 0 -380 -415 0 -415 0 0
380 0 380 -205 0 -205 0 2 -962z"/>
<path d="M146 1316 c-149 -56 -184 -262 -61 -364 45 -37 120 -57 178 -48 47 8
111 46 127 76 9 16 6 22 -20 35 -30 15 -32 15 -60 -9 -44 -36 -81 -41 -135
-17 -116 51 -105 229 17 261 46 13 89 2 124 -31 21 -19 24 -20 53 -4 27 13 30
19 21 35 -33 62 -162 97 -244 66z"/>
<path d="M3755 1316 c-141 -52 -180 -244 -71 -352 99 -100 279 -75 343 46 21
38 24 56 21 116 -4 86 -36 142 -100 175 -53 27 -141 34 -193 15z m152 -81 c43
-29 65 -74 60 -128 -13 -156 -215 -183 -256 -34 -36 128 89 232 196 162z"/>
<path d="M9419 1316 c-92 -33 -139 -100 -139 -201 0 -80 29 -139 88 -176 98
-62 230 -43 290 42 12 18 11 21 -20 33 -30 13 -35 13 -53 -5 -87 -80 -225 -14
-225 109 0 79 82 151 155 138 19 -4 47 -17 62 -30 28 -23 29 -24 62 -7 l34 18
-37 36 c-54 54 -139 71 -217 43z"/>
<path d="M9864 1311 c-53 -24 -74 -55 -74 -107 0 -55 34 -89 109 -110 106 -29
126 -38 129 -62 10 -67 -100 -83 -182 -27 l-36 25 -17 -35 c-16 -33 -16 -36 3
-50 25 -19 110 -45 148 -45 48 0 109 20 134 43 52 48 45 145 -13 178 -16 10
-63 27 -104 37 -87 24 -104 40 -78 76 22 29 85 31 139 3 l48 -24 16 25 c23 34
10 53 -52 74 -64 22 -119 22 -170 -1z"/>
<path d="M540 1115 l0 -205 150 0 150 0 0 35 0 35 -110 0 -110 0 0 50 0 50
105 0 105 0 0 35 0 34 -102 3 -103 3 -3 48 -3 47 110 0 111 0 0 35 0 35 -150
0 -150 0 0 -205z"/>
<path d="M1000 1115 l0 -205 40 0 39 0 3 141 3 140 103 -140 c102 -140 104
-141 143 -141 l39 0 0 205 0 205 -40 0 -39 0 -3 -136 -3 -136 -99 136 -100
136 -43 0 -43 0 0 -205z"/>
<path d="M1520 1285 l0 -34 58 -3 57 -3 3 -167 2 -168 40 0 40 0 0 170 0 170
60 0 60 0 0 35 0 35 -160 0 -160 0 0 -35z"/>
<path d="M1980 1115 l0 -205 150 0 150 0 0 35 0 35 -110 0 -110 0 0 50 0 50
105 0 105 0 0 35 0 34 -102 3 -103 3 -3 48 -3 47 110 0 111 0 0 35 0 35 -150
0 -150 0 0 -205z"/>
<path d="M2440 1115 l0 -205 40 0 40 0 0 75 0 75 34 0 c32 0 38 -5 81 -75 47
-75 47 -75 91 -75 24 0 44 2 44 6 0 3 -18 32 -40 64 -55 81 -56 85 -22 99 60
25 84 131 41 185 -37 47 -68 56 -194 56 l-115 0 0 -205z m230 115 c11 -11 20
-29 20 -40 0 -40 -35 -60 -105 -60 l-65 0 0 60 0 60 65 0 c52 0 69 -4 85 -20z"/>
<path d="M3200 1115 l0 -205 40 0 40 0 0 85 0 85 105 0 105 0 0 35 0 35 -105
0 -105 0 0 50 0 50 105 0 105 0 0 35 0 35 -145 0 -145 0 0 -205z"/>
<path d="M4210 1115 l0 -205 40 0 40 0 0 75 0 75 34 0 c30 0 37 -6 78 -72 44
-72 45 -73 91 -76 26 -2 47 0 47 4 0 3 -20 35 -45 70 -50 70 -53 80 -27 88 63
20 92 122 52 184 -31 49 -72 62 -200 62 l-110 0 0 -205z m230 115 c11 -11 20
-29 20 -40 0 -40 -35 -60 -105 -60 l-65 0 0 60 0 60 65 0 c52 0 69 -4 85 -20z"/>
<path d="M4960 1115 l0 -205 45 0 44 0 3 132 3 131 56 -129 c76 -176 78 -176
157 3 l61 138 1 -137 0 -138 40 0 40 0 0 205 0 205 -54 0 -53 0 -54 -125 c-30
-69 -57 -125 -60 -125 -3 0 -30 56 -60 125 l-54 125 -57 0 -58 0 0 -205z"/>
<path d="M5625 1124 c-44 -107 -81 -200 -83 -205 -2 -5 17 -9 42 -9 44 0 47 1
62 40 l16 40 94 0 94 0 16 -40 c15 -38 18 -40 60 -40 24 0 44 3 44 7 0 3 -37
96 -81 205 l-82 198 -51 0 -51 0 -80 -196z m169 23 c14 -37 26 -72 26 -77 0
-6 -29 -10 -65 -10 -36 0 -65 2 -65 4 0 19 64 166 70 159 4 -4 19 -38 34 -76z"/>
<path d="M6030 1285 l0 -35 60 0 60 0 0 -170 0 -170 40 0 40 0 2 168 3 167 63
3 62 3 0 34 0 35 -165 0 -165 0 0 -35z"/>
<path d="M6500 1115 l0 -205 40 0 40 0 0 85 0 85 105 0 105 0 0 -85 0 -85 45
0 45 0 0 205 0 205 -45 0 -45 0 0 -80 0 -80 -105 0 -105 0 0 80 0 80 -40 0
-40 0 0 -205z"/>
<path d="M7050 1115 l0 -205 150 0 150 0 0 35 0 35 -110 0 -110 0 0 50 0 50
105 0 105 0 0 35 0 34 -102 3 -103 3 -3 48 -3 47 110 0 111 0 0 35 0 35 -150
0 -150 0 0 -205z"/>
<path d="M7510 1115 l0 -205 40 0 39 0 3 137 3 137 59 -138 c77 -178 80 -178
156 -4 31 70 60 131 63 135 4 3 7 -55 7 -130 l0 -137 40 0 40 0 0 205 0 206
-57 -3 -57 -3 -55 -123 c-29 -68 -57 -119 -62 -115 -4 4 -31 61 -59 126 l-53
117 -53 0 -54 0 0 -205z"/>
<path d="M8241 1298 c-18 -47 -153 -373 -158 -380 -2 -5 17 -8 44 -8 46 0 49
1 65 40 l17 40 90 0 91 0 20 -40 c19 -38 23 -40 65 -40 31 0 43 4 40 13 -3 6
-41 98 -84 202 l-78 190 -51 3 c-47 3 -53 1 -61 -20z m96 -150 c18 -45 31 -83
29 -85 -2 -2 -33 -3 -68 -1 l-65 3 31 83 c17 45 33 82 36 82 3 0 20 -37 37
-82z"/>
<path d="M8580 1285 l0 -34 58 -3 57 -3 3 -167 2 -168 40 0 40 0 0 170 0 170
60 0 60 0 0 35 0 35 -160 0 -160 0 0 -35z"/>
<path d="M9040 1115 l0 -205 40 0 40 0 0 205 0 205 -40 0 -40 0 0 -205z"/>
<path d="M140 365 l0 -75 -71 0 c-67 0 -70 -1 -67 -22 3 -21 9 -23 71 -26 l67
-3 0 -74 0 -75 30 0 30 0 0 75 0 75 65 0 c63 0 65 1 65 25 0 24 -2 25 -65 25
l-65 0 0 75 0 75 -30 0 -30 0 0 -75z"/>
<path d="M3018 426 c-118 -32 -181 -145 -148 -266 30 -110 176 -181 287 -139
29 11 93 67 93 81 0 5 -14 15 -31 22 -28 12 -33 11 -54 -10 -46 -46 -144 -39
-185 13 -51 65 -44 149 15 202 48 42 118 44 164 5 29 -24 34 -25 61 -14 17 7
30 17 30 23 0 21 -71 75 -114 86 -54 13 -58 13 -118 -3z"/>
<path d="M4689 427 c-100 -28 -149 -96 -149 -206 0 -129 83 -211 212 -211 182
1 281 202 171 348 -47 63 -148 93 -234 69z m126 -79 c60 -27 86 -128 51 -196
-65 -125 -246 -73 -246 71 0 104 100 168 195 125z"/>
<path d="M5763 431 c-49 -13 -83 -39 -99 -78 -32 -75 10 -129 123 -158 111
-29 135 -53 93 -95 -28 -28 -94 -26 -155 5 -51 25 -51 25 -75 -16 -20 -34 66
-78 155 -79 112 0 175 44 175 124 0 72 -33 101 -150 131 -73 19 -90 29 -90 55
0 47 90 60 155 21 21 -12 38 -21 40 -19 21 30 35 54 35 59 0 13 -85 48 -130
53 -25 2 -60 1 -77 -3z"/>
<path d="M782 232 c-45 -109 -82 -202 -82 -205 0 -4 20 -7 44 -7 42 0 45 2 57
35 l13 35 98 0 98 0 14 -35 c14 -33 18 -35 60 -35 l46 0 -15 38 c-8 20 -46
111 -83 202 l-69 165 -50 3 -50 3 -81 -199z m167 23 c17 -44 31 -81 31 -82 0
-2 -29 -3 -65 -3 -36 0 -65 4 -65 10 0 5 9 33 21 62 12 29 25 64 30 77 5 13
11 22 14 20 2 -3 18 -40 34 -84z"/>
<path d="M1260 226 l0 -206 40 0 40 0 0 75 0 75 81 0 c93 0 130 16 154 66 29
61 11 135 -41 169 -24 16 -51 20 -151 23 l-123 4 0 -206z m226 112 c22 -22 21
-68 -2 -85 -10 -7 -44 -13 -81 -13 l-63 0 0 61 0 61 65 -4 c42 -2 71 -10 81
-20z"/>
<path d="M1730 225 l0 -205 40 0 39 0 3 72 3 73 93 5 c91 5 95 7 123 38 24 27
29 41 29 86 0 40 -6 60 -22 81 -34 44 -75 55 -198 55 l-110 0 0 -205z m236
110 c19 -25 18 -54 -3 -77 -13 -14 -31 -18 -85 -18 l-68 0 0 53 c0 30 3 57 8
61 4 4 36 6 71 4 47 -3 67 -9 77 -23z"/>
<path d="M2210 225 l0 -205 135 0 135 0 0 35 0 35 -95 0 -95 0 0 170 0 170
-40 0 -40 0 0 -205z"/>
<path d="M2630 225 l0 -205 40 0 40 0 0 205 0 205 -40 0 -40 0 0 -205z"/>
<path d="M3480 353 c-18 -43 -57 -135 -86 -205 l-52 -128 48 0 c46 0 49 1 60
35 l12 35 98 0 99 0 12 -35 c12 -33 15 -35 60 -35 l48 0 -51 123 c-28 67 -66
158 -84 202 l-32 80 -50 3 -50 3 -32 -78z m116 -96 l31 -82 -33 -3 c-19 -2
-49 -2 -68 0 l-33 3 31 82 c17 46 33 83 36 83 3 0 19 -37 36 -83z"/>
<path d="M3840 395 l0 -34 58 -3 57 -3 3 -167 2 -168 40 0 40 0 0 170 0 170
60 0 60 0 0 35 0 35 -160 0 -160 0 0 -35z"/>
<path d="M4300 225 l0 -205 40 0 40 0 0 205 0 205 -40 0 -40 0 0 -205z"/>
<path d="M5120 225 l0 -205 40 0 39 0 3 142 3 143 103 -143 103 -142 45 0 44
0 0 205 0 205 -40 0 -40 0 0 -135 c0 -74 -3 -135 -7 -135 -5 0 -52 61 -107
135 l-98 135 -44 0 -44 0 0 -205z"/>
</g>
</svg>
